<?xml version="1.0" encoding="utf-8"?>
<!-- Generator: Adobe Illustrator 18.0.0, SVG Export Plug-In . SVG Version: 6.00 Build 0)  -->
<!DOCTYPE svg PUBLIC "-//W3C//DTD SVG 1.1//EN" "http://www.w3.org/Graphics/SVG/1.1/DTD/svg11.dtd">
<svg version="1.1" id="Layer_1" xmlns="http://www.w3.org/2000/svg" xmlns:xlink="http://www.w3.org/1999/xlink" x="0px" y="0px"
	 viewBox="0 0 64 64" enable-background="new 0 0 64 64" xml:space="preserve">
<g>
	<g>
		<g>
			<path fill="#E84B4B" d="M32,0c17.7,0,32,14.3,32,32S49.7,64,32,64S0,49.7,0,32S14.3,0,32,0z"/>
		</g>
	</g>
	<g>
		<g>
			<path fill="#FFFFFF" d="M40,26c0,3.1-1,6-2.7,8.3L40,37l-3,3l-2.7-2.7C32,39,29.1,40,26,40c-7.7,0-14-6.3-14-14s6.3-14,14-14
				C33.7,12,40,18.3,40,26z"/>
		</g>
	</g>
	<g>
		<g>
			<path fill="#68B2EA" d="M26,14.9c6.1,0,11.1,5,11.1,11.1s-5,11.1-11.1,11.1c-6.1,0-11.1-5-11.1-11.1S19.9,14.9,26,14.9z"/>
		</g>
	</g>
	<g>
		<g>
			<polygon fill="#FFEA29" points="44,40 40,44 35.2,39.2 35.8,38.8 38.8,35.8 39.2,35.2 			"/>
		</g>
	</g>
	<g>
		<g>
			
				<rect x="42.2" y="37.9" transform="matrix(0.7071 -0.7071 0.7071 0.7071 -18.6396 45)" fill="#2C2C3D" width="5.7" height="14.1"/>
		</g>
	</g>
	<g>
		<g>
			<path fill="#FFFFFF" d="M24.1,17.3c0.5,0,1,0.4,1,1c0,0.5-0.4,1-1,1c-2.3,0-4.8,2.5-4.8,4.8c0,0.5-0.4,1-1,1c-0.5,0-1-0.4-1-1
				C17.3,20.7,20.6,17.3,24.1,17.3z"/>
		</g>
	</g>
</g>
</svg>
